<?xml version="1.0" standalone="no"?>
<!DOCTYPE svg PUBLIC "-//W3C//DTD SVG 20010904//EN"
 "http://www.w3.org/TR/2001/REC-SVG-20010904/DTD/svg10.dtd">
<svg version="1.0" xmlns="http://www.w3.org/2000/svg"
 width="16.000000pt" height="16.000000pt" viewBox="0 0 16.000000 16.000000"
 preserveAspectRatio="xMidYMid meet">
<metadata>
Created by potrace 1.11, written by Peter Selinger 2001-2013
</metadata>
<g transform="translate(0.000000,16.000000) scale(0.001031,-0.001031)"
fill="#000000" stroke="none">
<path d="M5159 10657 c-36 -13 -83 -36 -104 -50 -69 -47 -4930 -4902 -4974
-4968 -130 -194 -104 -448 63 -615 154 -154 371 -187 575 -88 48 24 216 188
1129 1098 l1072 1071 1063 -1061 c1151 -1151 1109 -1112 1257 -1150 125 -32
282 -6 387 64 23 15 1057 1042 2298 2281 1240 1239 2260 2251 2266 2249 5 -2
1025 -1016 2266 -2253 1241 -1238 2274 -2262 2297 -2278 97 -65 253 -94 367
-67 148 34 273 133 335 264 69 146 69 294 -2 434 -31 62 -222 256 -2501 2533
-2425 2424 -2469 2467 -2543 2503 -98 47 -200 63 -298 46 -71 -12 -172 -53
-220 -91 -15 -11 -1041 -1033 -2280 -2272 l-2252 -2252 -438 435 c-240 239
-632 628 -869 865 -238 236 -433 434 -433 440 0 5 381 391 847 857 l848 848
695 -695 695 -694 350 344 350 343 -865 867 c-476 476 -894 888 -929 915 -96
72 -155 92 -281 97 -91 3 -114 1 -171 -20z"/>
<path d="M8427 7082 c-185 -185 -337 -342 -337 -349 0 -17 1739 -1739 1790
-1773 78 -52 165 -73 282 -68 94 3 110 7 181 41 141 66 245 197 276 345 22
106 9 203 -41 312 -28 60 -92 127 -912 948 -484 485 -885 882 -891 882 -6 0
-162 -152 -348 -338z"/>
</g>
</svg>
